<svg version="1.1" viewBox="0.0 0.0 269.9265091863517 249.249343832021" fill="none" stroke="none" stroke-linecap="square" stroke-miterlimit="10" xmlns:xlink="http://www.w3.org/1999/xlink" xmlns="http://www.w3.org/2000/svg"><clipPath id="p.0"><path d="m0 0l269.9265 0l0 249.24934l-269.9265 0l0 -249.24934z" clip-rule="nonzero"/></clipPath><g clip-path="url(#p.0)"><path fill="#000000" fill-opacity="0.0" d="m0 0l269.9265 0l0 249.24934l-269.9265 0z" fill-rule="evenodd"/><path fill="#b6d7a8" d="m41.59055 52.509186l0 0c0 -8.453869 6.853218 -15.307087 15.307087 -15.307087c8.453873 0 15.307091 6.853218 15.307091 15.307087c0 8.453873 -6.853218 15.307091 -15.307091 15.307091c-8.453869 0 -15.307087 -6.853218 -15.307087 -15.307091z" fill-rule="evenodd"/><path fill="#91ab86" d="m50.39921 47.931232c0 -0.8806114 0.71387863 -1.5944862 1.59449 -1.5944862c0.8806114 0 1.5944862 0.7138748 1.5944862 1.5944862c0 0.8806114 -0.7138748 1.59449 -1.5944862 1.59449c-0.8806114 0 -1.59449 -0.71387863 -1.59449 -1.59449m9.807877 0c0 -0.8806114 0.7138748 -1.5944862 1.5944862 -1.5944862c0.8806114 0 1.59449 0.7138748 1.59449 1.5944862c0 0.8806114 -0.71387863 1.59449 -1.59449 1.59449c-0.8806114 0 -1.5944862 -0.71387863 -1.5944862 -1.59449" fill-rule="evenodd"/><path fill="#000000" fill-opacity="0.0" d="m48.601097 59.184708q8.296539 5.697914 16.573708 0" fill-rule="evenodd"/><path fill="#000000" fill-opacity="0.0" d="m41.59055 52.509186l0 0c0 -8.453869 6.853218 -15.307087 15.307087 -15.307087c8.453873 0 15.307091 6.853218 15.307091 15.307087c0 8.453873 -6.853218 15.307091 -15.307091 15.307091c-8.453869 0 -15.307087 -6.853218 -15.307087 -15.307091z" fill-rule="evenodd"/><path stroke="#000000" stroke-width="1.0" stroke-linejoin="round" stroke-linecap="butt" d="m50.39921 47.931232c0 -0.8806114 0.71387863 -1.5944862 1.59449 -1.5944862c0.8806114 0 1.5944862 0.7138748 1.5944862 1.5944862c0 0.8806114 -0.7138748 1.59449 -1.5944862 1.59449c-0.8806114 0 -1.59449 -0.71387863 -1.59449 -1.59449m9.807877 0c0 -0.8806114 0.7138748 -1.5944862 1.5944862 -1.5944862c0.8806114 0 1.59449 0.7138748 1.59449 1.5944862c0 0.8806114 -0.71387863 1.59449 -1.59449 1.59449c-0.8806114 0 -1.5944862 -0.71387863 -1.5944862 -1.59449" fill-rule="evenodd"/><path stroke="#000000" stroke-width="1.0" stroke-linejoin="round" stroke-linecap="butt" d="m48.601097 59.184708q8.296539 5.697914 16.573708 0" fill-rule="evenodd"/><path stroke="#000000" stroke-width="1.0" stroke-linejoin="round" stroke-linecap="butt" d="m41.59055 52.509186l0 0c0 -8.453869 6.853218 -15.307087 15.307087 -15.307087c8.453873 0 15.307091 6.853218 15.307091 15.307087c0 8.453873 -6.853218 15.307091 -15.307091 15.307091c-8.453869 0 -15.307087 -6.853218 -15.307087 -15.307091z" fill-rule="evenodd"/><path fill="#f4cccc" d="m208.6693 52.509186l0 0c0 -8.453869 6.8532104 -15.307087 15.307083 -15.307087c8.453873 0 15.307083 6.853218 15.307083 15.307087c0 8.453873 -6.8532104 15.307091 -15.307083 15.307091c-8.453873 0 -15.307083 -6.853218 -15.307083 -15.307091z" fill-rule="evenodd"/><path fill="#c3a3a3" d="m217.47795 47.931232c0 -0.8806114 0.71388245 -1.5944862 1.5944824 -1.5944862c0.88061523 0 1.5944977 0.7138748 1.5944977 1.5944862c0 0.8806114 -0.71388245 1.59449 -1.5944977 1.59449c-0.8806 0 -1.5944824 -0.71387863 -1.5944824 -1.59449m9.807877 0c0 -0.8806114 0.71388245 -1.5944862 1.5944824 -1.5944862c0.88061523 0 1.5944977 0.7138748 1.5944977 1.5944862c0 0.8806114 -0.71388245 1.59449 -1.5944977 1.59449c-0.8806 0 -1.5944824 -0.71387863 -1.5944824 -1.59449" fill-rule="evenodd"/><path fill="#000000" fill-opacity="0.0" d="m215.67984 62.033665q8.296539 -5.6979103 16.5737 0" fill-rule="evenodd"/><path fill="#000000" fill-opacity="0.0" d="m208.6693 52.509186l0 0c0 -8.453869 6.8532104 -15.307087 15.307083 -15.307087c8.453873 0 15.307083 6.853218 15.307083 15.307087c0 8.453873 -6.8532104 15.307091 -15.307083 15.307091c-8.453873 0 -15.307083 -6.853218 -15.307083 -15.307091z" fill-rule="evenodd"/><path stroke="#000000" stroke-width="1.0" stroke-linejoin="round" stroke-linecap="butt" d="m217.47795 47.931232c0 -0.8806114 0.71388245 -1.5944862 1.5944824 -1.5944862c0.88061523 0 1.5944977 0.7138748 1.5944977 1.5944862c0 0.8806114 -0.71388245 1.59449 -1.5944977 1.59449c-0.8806 0 -1.5944824 -0.71387863 -1.5944824 -1.59449m9.807877 0c0 -0.8806114 0.71388245 -1.5944862 1.5944824 -1.5944862c0.88061523 0 1.5944977 0.7138748 1.5944977 1.5944862c0 0.8806114 -0.71388245 1.59449 -1.5944977 1.59449c-0.8806 0 -1.5944824 -0.71387863 -1.5944824 -1.59449" fill-rule="evenodd"/><path stroke="#000000" stroke-width="1.0" stroke-linejoin="round" stroke-linecap="butt" d="m215.67984 62.033665q8.296539 -5.6979103 16.5737 0" fill-rule="evenodd"/><path stroke="#000000" stroke-width="1.0" stroke-linejoin="round" stroke-linecap="butt" d="m208.6693 52.509186l0 0c0 -8.453869 6.8532104 -15.307087 15.307083 -15.307087c8.453873 0 15.307083 6.853218 15.307083 15.307087c0 8.453873 -6.8532104 15.307091 -15.307083 15.307091c-8.453873 0 -15.307083 -6.853218 -15.307083 -15.307091z" fill-rule="evenodd"/><path fill="#f4cccc" d="m208.6693 184.19948l0 0c0 -8.453873 6.8532104 -15.307083 15.307083 -15.307083c8.453873 0 15.307083 6.8532104 15.307083 15.307083c0 8.453873 -6.8532104 15.307083 -15.307083 15.307083c-8.453873 0 -15.307083 -6.8532104 -15.307083 -15.307083z" fill-rule="evenodd"/><path fill="#c3a3a3" d="m217.47795 179.62152c0 -0.88061523 0.71388245 -1.5944824 1.5944824 -1.5944824c0.88061523 0 1.5944977 0.7138672 1.5944977 1.5944824c0 0.88061523 -0.71388245 1.5944824 -1.5944977 1.5944824c-0.8806 0 -1.5944824 -0.7138672 -1.5944824 -1.5944824m9.807877 0c0 -0.88061523 0.71388245 -1.5944824 1.5944824 -1.5944824c0.88061523 0 1.5944977 0.7138672 1.5944977 1.5944824c0 0.88061523 -0.71388245 1.5944824 -1.5944977 1.5944824c-0.8806 0 -1.5944824 -0.7138672 -1.5944824 -1.5944824" fill-rule="evenodd"/><path fill="#000000" fill-opacity="0.0" d="m215.67984 193.72395q8.296539 -5.6979065 16.5737 0" fill-rule="evenodd"/><path fill="#000000" fill-opacity="0.0" d="m208.6693 184.19948l0 0c0 -8.453873 6.8532104 -15.307083 15.307083 -15.307083c8.453873 0 15.307083 6.8532104 15.307083 15.307083c0 8.453873 -6.8532104 15.307083 -15.307083 15.307083c-8.453873 0 -15.307083 -6.8532104 -15.307083 -15.307083z" fill-rule="evenodd"/><path stroke="#000000" stroke-width="1.0" stroke-linejoin="round" stroke-linecap="butt" d="m217.47795 179.62152c0 -0.88061523 0.71388245 -1.5944824 1.5944824 -1.5944824c0.88061523 0 1.5944977 0.7138672 1.5944977 1.5944824c0 0.88061523 -0.71388245 1.5944824 -1.5944977 1.5944824c-0.8806 0 -1.5944824 -0.7138672 -1.5944824 -1.5944824m9.807877 0c0 -0.88061523 0.71388245 -1.5944824 1.5944824 -1.5944824c0.88061523 0 1.5944977 0.7138672 1.5944977 1.5944824c0 0.88061523 -0.71388245 1.5944824 -1.5944977 1.5944824c-0.8806 0 -1.5944824 -0.7138672 -1.5944824 -1.5944824" fill-rule="evenodd"/><path stroke="#000000" stroke-width="1.0" stroke-linejoin="round" stroke-linecap="butt" d="m215.67984 193.72395q8.296539 -5.6979065 16.5737 0" fill-rule="evenodd"/><path stroke="#000000" stroke-width="1.0" stroke-linejoin="round" stroke-linecap="butt" d="m208.6693 184.19948l0 0c0 -8.453873 6.8532104 -15.307083 15.307083 -15.307083c8.453873 0 15.307083 6.8532104 15.307083 15.307083c0 8.453873 -6.8532104 15.307083 -15.307083 15.307083c-8.453873 0 -15.307083 -6.8532104 -15.307083 -15.307083z" fill-rule="evenodd"/><path fill="#e6b8af" d="m41.59055 184.19948l0 0c0 -8.453873 6.853218 -15.307083 15.307087 -15.307083c8.453873 0 15.307091 6.8532104 15.307091 15.307083c0 8.453873 -6.853218 15.307083 -15.307091 15.307083c-8.453869 0 -15.307087 -6.8532104 -15.307087 -15.307083z" fill-rule="evenodd"/><path fill="#b7938b" d="m50.39921 179.62152c0 -0.88061523 0.71387863 -1.5944824 1.59449 -1.5944824c0.8806114 0 1.5944862 0.7138672 1.5944862 1.5944824c0 0.88061523 -0.7138748 1.5944824 -1.5944862 1.5944824c-0.8806114 0 -1.59449 -0.7138672 -1.59449 -1.5944824m9.807877 0c0 -0.88061523 0.7138748 -1.5944824 1.5944862 -1.5944824c0.8806114 0 1.59449 0.7138672 1.59449 1.5944824c0 0.88061523 -0.71387863 1.5944824 -1.59449 1.5944824c-0.8806114 0 -1.5944862 -0.7138672 -1.5944862 -1.5944824" fill-rule="evenodd"/><path fill="#000000" fill-opacity="0.0" d="m48.601097 193.5963q8.296539 -5.187271 16.573708 0" fill-rule="evenodd"/><path fill="#000000" fill-opacity="0.0" d="m41.59055 184.19948l0 0c0 -8.453873 6.853218 -15.307083 15.307087 -15.307083c8.453873 0 15.307091 6.8532104 15.307091 15.307083c0 8.453873 -6.853218 15.307083 -15.307091 15.307083c-8.453869 0 -15.307087 -6.8532104 -15.307087 -15.307083z" fill-rule="evenodd"/><path stroke="#000000" stroke-width="1.0" stroke-linejoin="round" stroke-linecap="butt" d="m50.39921 179.62152c0 -0.88061523 0.71387863 -1.5944824 1.59449 -1.5944824c0.8806114 0 1.5944862 0.7138672 1.5944862 1.5944824c0 0.88061523 -0.7138748 1.5944824 -1.5944862 1.5944824c-0.8806114 0 -1.59449 -0.7138672 -1.59449 -1.5944824m9.807877 0c0 -0.88061523 0.7138748 -1.5944824 1.5944862 -1.5944824c0.8806114 0 1.59449 0.7138672 1.59449 1.5944824c0 0.88061523 -0.71387863 1.5944824 -1.59449 1.5944824c-0.8806114 0 -1.5944862 -0.7138672 -1.5944862 -1.5944824" fill-rule="evenodd"/><path stroke="#000000" stroke-width="1.0" stroke-linejoin="round" stroke-linecap="butt" d="m48.601097 193.5963q8.296539 -5.187271 16.573708 0" fill-rule="evenodd"/><path stroke="#000000" stroke-width="1.0" stroke-linejoin="round" stroke-linecap="butt" d="m41.59055 184.19948l0 0c0 -8.453873 6.853218 -15.307083 15.307087 -15.307083c8.453873 0 15.307091 6.8532104 15.307091 15.307083c0 8.453873 -6.853218 15.307083 -15.307091 15.307083c-8.453869 0 -15.307087 -6.8532104 -15.307087 -15.307083z" fill-rule="evenodd"/><path fill="#000000" fill-opacity="0.0" d="m0 0l145.41733 0l0 37.19685l-145.41733 0z" fill-rule="evenodd"/><path fill="#000000" d="m9.875 21.8l0 -9.546875l1.171875 0l0 3.421875q0.828125 -0.9375 2.078125 -0.9375q0.765625 0 1.328125 0.296875q0.5625 0.296875 0.8125 0.84375q0.25 0.53125 0.25 1.546875l0 4.375l-1.171875 0l0 -4.375q0 -0.890625 -0.390625 -1.28125q-0.375 -0.40625 -1.078125 -0.40625q-0.515625 0 -0.984375 0.28125q-0.453125 0.265625 -0.65625 0.734375q-0.1875 0.453125 -0.1875 1.265625l0 3.78125l-1.171875 0zm11.928101 -0.859375q-0.65625 0.5625 -1.265625 0.796875q-0.59375 0.21875 -1.28125 0.21875q-1.140625 0 -1.75 -0.546875q-0.609375 -0.5625 -0.609375 -1.4375q0 -0.5 0.21875 -0.921875q0.234375 -0.421875 0.609375 -0.671875q0.375 -0.25 0.84375 -0.390625q0.34375 -0.078125 1.046875 -0.171875q1.421875 -0.171875 2.09375 -0.40625q0 -0.234375 0 -0.296875q0 -0.71875 -0.328125 -1.015625q-0.453125 -0.390625 -1.34375 -0.390625q-0.8125 0 -1.21875 0.296875q-0.390625 0.28125 -0.578125 1.015625l-1.140625 -0.15625q0.15625 -0.734375 0.515625 -1.1875q0.359375 -0.453125 1.03125 -0.6875q0.671875 -0.25 1.5625 -0.25q0.890625 0 1.4375 0.203125q0.5625 0.203125 0.8125 0.53125q0.265625 0.3125 0.375 0.796875q0.046875 0.296875 0.046875 1.078125l0 1.5625q0 1.625 0.078125 2.0625q0.078125 0.4375 0.296875 0.828125l-1.21875 0q-0.1875 -0.359375 -0.234375 -0.859375zm-0.09375 -2.609375q-0.640625 0.265625 -1.921875 0.4375q-0.71875 0.109375 -1.015625 0.25q-0.296875 0.125 -0.46875 0.375q-0.15625 0.25 -0.15625 0.546875q0 0.46875 0.34375 0.78125q0.359375 0.3125 1.046875 0.3125q0.671875 0 1.203125 -0.296875q0.53125 -0.296875 0.78125 -0.8125q0.1875 -0.390625 0.1875 -1.171875l0 -0.421875zm2.5218506 1.40625l1.15625 -0.1875q0.109375 0.703125 0.546875 1.078125q0.453125 0.359375 1.25 0.359375q0.8125 0 1.203125 -0.328125q0.390625 -0.328125 0.390625 -0.765625q0 -0.390625 -0.359375 -0.625q-0.234375 -0.15625 -1.1875 -0.390625q-1.296875 -0.328125 -1.796875 -0.5625q-0.484375 -0.25 -0.75 -0.65625q-0.25 -0.421875 -0.25 -0.9375q0 -0.453125 0.203125 -0.84375q0.21875 -0.40625 0.578125 -0.671875q0.28125 -0.1875 0.75 -0.328125q0.46875 -0.140625 1.015625 -0.140625q0.8125 0 1.421875 0.234375q0.609375 0.234375 0.90625 0.640625q0.296875 0.390625 0.40625 1.0625l-1.140625 0.15625q-0.078125 -0.53125 -0.453125 -0.828125q-0.375 -0.3125 -1.0625 -0.3125q-0.8125 0 -1.15625 0.265625q-0.34375 0.265625 -0.34375 0.625q0 0.234375 0.140625 0.421875q0.15625 0.1875 0.453125 0.3125q0.171875 0.0625 1.03125 0.296875q1.25 0.328125 1.734375 0.546875q0.5 0.203125 0.78125 0.609375q0.28125 0.40625 0.28125 1.0q0 0.59375 -0.34375 1.109375q-0.34375 0.515625 -1.0 0.796875q-0.640625 0.28125 -1.453125 0.28125q-1.34375 0 -2.046875 -0.5625q-0.703125 -0.5625 -0.90625 -1.65625zm7.4609375 -3.515625l0 -1.328125l1.328125 0l0 1.328125l-1.328125 0zm0 5.578125l0 -1.328125l1.328125 0l0 1.328125l-1.328125 0zm7.1091003 2.65625l0 -12.203125l2.578125 0l0 0.96875l-1.40625 0l0 10.25l1.40625 0l0 0.984375l-2.578125 0zm4.0467377 -2.65625l0 -9.546875l1.25 0l0 9.546875l-1.25 0zm3.4373627 0l0 -9.546875l1.90625 0l2.25 6.765625q0.3125 0.9375 0.46875 1.40625q0.15625 -0.515625 0.5 -1.53125l2.28125 -6.640625l1.703125 0l0 9.546875l-1.21875 0l0 -7.984375l-2.765625 7.984375l-1.140625 0l-2.765625 -8.125l0 8.125l-1.21875 0zm15.618057 -3.734375l0 -1.125l4.03125 -0.015625l0 3.546875q-0.921875 0.75 -1.921875 1.125q-0.984375 0.359375 -2.03125 0.359375q-1.40625 0 -2.5625 -0.59375q-1.140625 -0.609375 -1.734375 -1.734375q-0.578125 -1.140625 -0.578125 -2.546875q0 -1.40625 0.578125 -2.609375q0.59375 -1.203125 1.6875 -1.78125q1.09375 -0.59375 2.515625 -0.59375q1.03125 0 1.859375 0.34375q0.84375 0.328125 1.3125 0.9375q0.484375 0.59375 0.734375 1.546875l-1.140625 0.3125q-0.21875 -0.71875 -0.53125 -1.140625q-0.3125 -0.421875 -0.90625 -0.671875q-0.59375 -0.25 -1.3125 -0.25q-0.875 0 -1.515625 0.265625q-0.625 0.265625 -1.015625 0.703125q-0.375 0.421875 -0.59375 0.9375q-0.359375 0.875 -0.359375 1.921875q0 1.265625 0.4375 2.125q0.4375 0.859375 1.265625 1.28125q0.84375 0.421875 1.796875 0.421875q0.8125 0 1.59375 -0.3125q0.78125 -0.328125 1.1875 -0.6875l0 -1.765625l-2.796875 0zm4.663925 6.390625l0 -0.859375l7.765625 0l0 0.859375l-7.765625 0zm8.178101 -5.171875l1.171875 -0.15625q0.203125 1.0 0.6875 1.4375q0.484375 0.4375 1.171875 0.4375q0.828125 0 1.390625 -0.578125q0.578125 -0.578125 0.578125 -1.421875q0 -0.796875 -0.53125 -1.3125q-0.515625 -0.53125 -1.328125 -0.53125q-0.34375 0 -0.828125 0.125l0.125 -1.03125q0.125 0.015625 0.1875 0.015625q0.75 0 1.34375 -0.390625q0.609375 -0.390625 0.609375 -1.203125q0 -0.640625 -0.4375 -1.0625q-0.4375 -0.421875 -1.125 -0.421875q-0.6875 0 -1.140625 0.4375q-0.453125 0.421875 -0.59375 1.28125l-1.171875 -0.21875q0.21875 -1.171875 0.984375 -1.8125q0.765625 -0.65625 1.890625 -0.65625q0.78125 0 1.4375 0.34375q0.65625 0.328125 1.0 0.90625q0.359375 0.578125 0.359375 1.234375q0 0.609375 -0.34375 1.125q-0.328125 0.5 -0.96875 0.796875q0.84375 0.203125 1.3125 0.828125q0.46875 0.609375 0.46875 1.53125q0 1.25 -0.921875 2.125q-0.90625 0.859375 -2.296875 0.859375q-1.25 0 -2.09375 -0.75q-0.828125 -0.75 -0.9375 -1.9375zm7.3968506 -2.1875q0 -1.6875 0.34375 -2.71875q0.359375 -1.03125 1.046875 -1.59375q0.6875 -0.5625 1.71875 -0.5625q0.78125 0 1.359375 0.3125q0.578125 0.296875 0.953125 0.890625q0.375 0.578125 0.59375 1.421875q0.21875 0.828125 0.21875 2.25q0 1.671875 -0.359375 2.703125q-0.34375 1.03125 -1.03125 1.59375q-0.671875 0.5625 -1.734375 0.5625q-1.375 0 -2.15625 -0.984375q-0.953125 -1.1875 -0.953125 -3.875zm1.203125 0q0 2.34375 0.546875 3.125q0.5625 0.78125 1.359375 0.78125q0.8125 0 1.359375 -0.78125q0.5625 -0.78125 0.5625 -3.125q0 -2.359375 -0.5625 -3.125q-0.546875 -0.78125 -1.359375 -0.78125q-0.8125 0 -1.296875 0.6875q-0.609375 0.875 -0.609375 3.21875zm6.2093506 2.203125l1.234375 -0.109375q0.140625 0.90625 0.640625 1.359375q0.5 0.453125 1.203125 0.453125q0.84375 0 1.421875 -0.640625q0.59375 -0.640625 0.59375 -1.6875q0 -1.0 -0.5625 -1.578125q-0.5625 -0.59375 -1.484375 -0.59375q-0.5625 0 -1.015625 0.265625q-0.453125 0.25 -0.71875 0.671875l-1.09375 -0.15625l0.921875 -4.890625l4.75 0l0 1.109375l-3.8125 0l-0.515625 2.5625q0.859375 -0.59375 1.796875 -0.59375q1.25 0 2.109375 0.875q0.859375 0.859375 0.859375 2.21875q0 1.296875 -0.75 2.234375q-0.921875 1.15625 -2.5 1.15625q-1.3125 0 -2.140625 -0.71875q-0.8125 -0.734375 -0.9375 -1.9375zm11.834351 2.5l-1.171875 0l0 -7.46875q-0.421875 0.40625 -1.109375 0.8125q-0.6875 0.40625 -1.234375 0.609375l0 -1.140625q0.984375 -0.453125 1.71875 -1.109375q0.734375 -0.671875 1.03125 -1.28125l0.765625 0l0 9.578125zm3.6468506 0l0 -1.328125l1.34375 0l0 1.328125l-1.34375 0zm3.3748627 -8.1875l0 -1.359375l1.171875 0l0 1.359375l-1.171875 0zm-1.484375 10.875l0.21875 -1.0q0.359375 0.09375 0.546875 0.09375q0.359375 0 0.53125 -0.25q0.1875 -0.234375 0.1875 -1.1875l0 -7.25l1.171875 0l0 7.28125q0 1.28125 -0.328125 1.78125q-0.4375 0.65625 -1.40625 0.65625q-0.484375 0 -0.921875 -0.125zm4.445465 -0.03125l0 -9.5625l1.078125 0l0 0.890625q0.375 -0.53125 0.84375 -0.78125q0.484375 -0.265625 1.15625 -0.265625q0.875 0 1.546875 0.453125q0.6875 0.453125 1.03125 1.28125q0.34375 0.828125 0.34375 1.828125q0 1.046875 -0.375 1.90625q-0.375 0.84375 -1.109375 1.296875q-0.71875 0.453125 -1.53125 0.453125q-0.578125 0 -1.046875 -0.25q-0.46875 -0.25 -0.765625 -0.625l0 3.375l-1.171875 0zm1.0625 -6.078125q0 1.34375 0.53125 1.984375q0.546875 0.625 1.3125 0.625q0.78125 0 1.34375 -0.65625q0.5625 -0.65625 0.5625 -2.046875q0 -1.3125 -0.546875 -1.96875q-0.546875 -0.671875 -1.296875 -0.671875q-0.75 0 -1.328125 0.703125q-0.578125 0.703125 -0.578125 2.03125zm6.1312256 4.0l1.140625 0.15625q0.078125 0.53125 0.40625 0.78125q0.4375 0.3125 1.1875 0.3125q0.8125 0 1.25 -0.328125q0.453125 -0.3125 0.609375 -0.90625q0.09375 -0.359375 0.078125 -1.5q-0.765625 0.90625 -1.90625 0.90625q-1.4375 0 -2.21875 -1.03125q-0.78125 -1.03125 -0.78125 -2.46875q0 -0.984375 0.359375 -1.8125q0.359375 -0.84375 1.03125 -1.296875q0.6875 -0.453125 1.609375 -0.453125q1.21875 0 2.015625 0.984375l0 -0.828125l1.078125 0l0 5.96875q0 1.609375 -0.328125 2.28125q-0.328125 0.6875 -1.046875 1.078125q-0.703125 0.390625 -1.75 0.390625q-1.234375 0 -2.0 -0.5625q-0.75 -0.5625 -0.734375 -1.671875zm0.984375 -4.15625q0 1.359375 0.53125 1.984375q0.546875 0.625 1.359375 0.625q0.796875 0 1.34375 -0.625q0.546875 -0.625 0.546875 -1.953125q0 -1.265625 -0.5625 -1.90625q-0.5625 -0.640625 -1.359375 -0.640625q-0.765625 0 -1.3125 0.640625q-0.546875 0.625 -0.546875 1.875zm8.615601 6.234375l-2.59375 0l0 -0.984375l1.421875 0l0 -10.25l-1.421875 0l0 -0.96875l2.59375 0l0 12.203125z" fill-rule="nonzero"/><path fill="#000000" fill-opacity="0.0" d="m195.4567 2.71916l117.03937 0l0 21.102362l-117.03937 0z" fill-rule="evenodd"/><path fill="#000000" d="m205.3317 24.51916l0 -9.546875l1.171875 0l0 3.421875q0.828125 -0.9375 2.078125 -0.9375q0.765625 0 1.328125 0.296875q0.5625 0.296875 0.8125 0.84375q0.25 0.53125 0.25 1.546875l0 4.375l-1.171875 0l0 -4.375q0 -0.890625 -0.390625 -1.28125q-0.375 -0.40625 -1.078125 -0.40625q-0.515625 0 -0.984375 0.28125q-0.453125 0.265625 -0.65625 0.734375q-0.1875 0.453125 -0.1875 1.265625l0 3.78125l-1.171875 0zm11.928101 -0.859375q-0.65625 0.5625 -1.265625 0.796875q-0.59375 0.21875 -1.28125 0.21875q-1.140625 0 -1.75 -0.546875q-0.609375 -0.5625 -0.609375 -1.4375q0 -0.5 0.21875 -0.921875q0.234375 -0.421875 0.609375 -0.671875q0.375 -0.25 0.84375 -0.390625q0.34375 -0.078125 1.046875 -0.171875q1.421875 -0.171875 2.09375 -0.40625q0 -0.234375 0 -0.296875q0 -0.71875 -0.328125 -1.015625q-0.453125 -0.390625 -1.34375 -0.390625q-0.8125 0 -1.21875 0.296875q-0.390625 0.28125 -0.578125 1.015625l-1.140625 -0.15625q0.15625 -0.734375 0.515625 -1.1875q0.359375 -0.453125 1.03125 -0.6875q0.671875 -0.25 1.5625 -0.25q0.890625 0 1.4375 0.203125q0.5625 0.203125 0.8125 0.53125q0.265625 0.3125 0.375 0.796875q0.046875 0.296875 0.046875 1.078125l0 1.5625q0 1.625 0.078125 2.0625q0.078125 0.4375 0.296875 0.828125l-1.21875 0q-0.1875 -0.359375 -0.234375 -0.859375zm-0.09375 -2.609375q-0.640625 0.265625 -1.921875 0.4375q-0.71875 0.109375 -1.015625 0.25q-0.296875 0.125 -0.46875 0.375q-0.15625 0.25 -0.15625 0.546875q0 0.46875 0.34375 0.78125q0.359375 0.3125 1.046875 0.3125q0.671875 0 1.203125 -0.296875q0.53125 -0.296875 0.78125 -0.8125q0.1875 -0.390625 0.1875 -1.171875l0 -0.421875zm2.5218506 1.40625l1.15625 -0.1875q0.109375 0.703125 0.546875 1.078125q0.453125 0.359375 1.25 0.359375q0.8125 0 1.203125 -0.328125q0.390625 -0.328125 0.390625 -0.765625q0 -0.390625 -0.359375 -0.625q-0.234375 -0.15625 -1.1875 -0.390625q-1.296875 -0.328125 -1.796875 -0.5625q-0.484375 -0.25 -0.75 -0.65625q-0.25 -0.421875 -0.25 -0.9375q0 -0.453125 0.203125 -0.84375q0.21875 -0.40625 0.578125 -0.671875q0.28125 -0.1875 0.75 -0.328125q0.46875 -0.140625 1.015625 -0.140625q0.8125 0 1.421875 0.234375q0.609375 0.234375 0.90625 0.640625q0.296875 0.390625 0.40625 1.0625l-1.140625 0.15625q-0.078125 -0.53125 -0.453125 -0.828125q-0.375 -0.3125 -1.0625 -0.3125q-0.8125 0 -1.15625 0.265625q-0.34375 0.265625 -0.34375 0.625q0 0.234375 0.140625 0.421875q0.15625 0.1875 0.453125 0.3125q0.171875 0.0625 1.03125 0.296875q1.25 0.328125 1.734375 0.546875q0.5 0.203125 0.78125 0.609375q0.28125 0.40625 0.28125 1.0q0 0.59375 -0.34375 1.109375q-0.34375 0.515625 -1.0 0.796875q-0.640625 0.28125 -1.453125 0.28125q-1.34375 0 -2.046875 -0.5625q-0.703125 -0.5625 -0.90625 -1.65625zm7.4609375 -3.515625l0 -1.328125l1.328125 0l0 1.328125l-1.328125 0zm0 5.578125l0 -1.328125l1.328125 0l0 1.328125l-1.328125 0zm7.1091003 2.65625l0 -12.203125l2.578125 0l0 0.96875l-1.40625 0l0 10.25l1.40625 0l0 0.984375l-2.578125 0zm5.6404877 0l-2.59375 0l0 -0.984375l1.421875 0l0 -10.25l-1.421875 0l0 -0.96875l2.59375 0l0 12.203125z" fill-rule="nonzero"/><path fill="#000000" fill-opacity="0.0" d="m195.4567 199.50919l117.03937 0l0 21.102356l-117.03937 0z" fill-rule="evenodd"/><path fill="#000000" d="m205.3317 221.30919l0 -9.546875l1.171875 0l0 3.421875q0.828125 -0.9375 2.078125 -0.9375q0.765625 0 1.328125 0.296875q0.5625 0.296875 0.8125 0.84375q0.25 0.53125 0.25 1.546875l0 4.375l-1.171875 0l0 -4.375q0 -0.890625 -0.390625 -1.28125q-0.375 -0.40625 -1.078125 -0.40625q-0.515625 0 -0.984375 0.28125q-0.453125 0.265625 -0.65625 0.734375q-0.1875 0.453125 -0.1875 1.265625l0 3.78125l-1.171875 0zm11.928101 -0.859375q-0.65625 0.5625 -1.265625 0.796875q-0.59375 0.21875 -1.28125 0.21875q-1.140625 0 -1.75 -0.546875q-0.609375 -0.5625 -0.609375 -1.4375q0 -0.5 0.21875 -0.921875q0.234375 -0.421875 0.609375 -0.671875q0.375 -0.25 0.84375 -0.390625q0.34375 -0.078125 1.046875 -0.171875q1.421875 -0.171875 2.09375 -0.40625q0 -0.234375 0 -0.296875q0 -0.71875 -0.328125 -1.015625q-0.453125 -0.390625 -1.34375 -0.390625q-0.8125 0 -1.21875 0.296875q-0.390625 0.28125 -0.578125 1.015625l-1.140625 -0.15625q0.15625 -0.734375 0.515625 -1.1875q0.359375 -0.453125 1.03125 -0.6875q0.671875 -0.25 1.5625 -0.25q0.890625 0 1.4375 0.203125q0.5625 0.203125 0.8125 0.53125q0.265625 0.3125 0.375 0.796875q0.046875 0.296875 0.046875 1.078125l0 1.5625q0 1.625 0.078125 2.0625q0.078125 0.4375 0.296875 0.828125l-1.21875 0q-0.1875 -0.359375 -0.234375 -0.859375zm-0.09375 -2.609375q-0.640625 0.265625 -1.921875 0.4375q-0.71875 0.109375 -1.015625 0.25q-0.296875 0.125 -0.46875 0.375q-0.15625 0.25 -0.15625 0.546875q0 0.46875 0.34375 0.78125q0.359375 0.3125 1.046875 0.3125q0.671875 0 1.203125 -0.296875q0.53125 -0.296875 0.78125 -0.8125q0.1875 -0.390625 0.1875 -1.171875l0 -0.421875zm2.5218506 1.40625l1.15625 -0.1875q0.109375 0.703125 0.546875 1.078125q0.453125 0.359375 1.25 0.359375q0.8125 0 1.203125 -0.328125q0.390625 -0.328125 0.390625 -0.765625q0 -0.390625 -0.359375 -0.625q-0.234375 -0.15625 -1.1875 -0.390625q-1.296875 -0.328125 -1.796875 -0.5625q-0.484375 -0.25 -0.75 -0.65625q-0.25 -0.421875 -0.25 -0.9375q0 -0.453125 0.203125 -0.84375q0.21875 -0.40625 0.578125 -0.671875q0.28125 -0.1875 0.75 -0.328125q0.46875 -0.140625 1.015625 -0.140625q0.8125 0 1.421875 0.234375q0.609375 0.234375 0.90625 0.640625q0.296875 0.390625 0.40625 1.0625l-1.140625 0.15625q-0.078125 -0.53125 -0.453125 -0.828125q-0.375 -0.3125 -1.0625 -0.3125q-0.8125 0 -1.15625 0.265625q-0.34375 0.265625 -0.34375 0.625q0 0.234375 0.140625 0.421875q0.15625 0.1875 0.453125 0.3125q0.171875 0.0625 1.03125 0.296875q1.25 0.328125 1.734375 0.546875q0.5 0.203125 0.78125 0.609375q0.28125 0.40625 0.28125 1.0q0 0.59375 -0.34375 1.109375q-0.34375 0.515625 -1.0 0.796875q-0.640625 0.28125 -1.453125 0.28125q-1.34375 0 -2.046875 -0.5625q-0.703125 -0.5625 -0.90625 -1.65625zm7.4609375 -3.515625l0 -1.328125l1.328125 0l0 1.328125l-1.328125 0zm0 5.578125l0 -1.328125l1.328125 0l0 1.328125l-1.328125 0zm7.1091003 2.65625l0 -12.203125l2.578125 0l0 0.96875l-1.40625 0l0 10.25l1.40625 0l0 0.984375l-2.578125 0zm5.6404877 0l-2.59375 0l0 -0.984375l1.421875 0l0 -10.25l-1.421875 0l0 -0.96875l2.59375 0l0 12.203125z" fill-rule="nonzero"/><path fill="#000000" fill-opacity="0.0" d="m28.377953 199.50919l117.039375 0l0 21.102356l-117.039375 0z" fill-rule="evenodd"/><path fill="#000000" d="m38.252953 221.30919l0 -9.546875l1.171875 0l0 3.421875q0.828125 -0.9375 2.078125 -0.9375q0.765625 0 1.328125 0.296875q0.5625 0.296875 0.8125 0.84375q0.25 0.53125 0.25 1.546875l0 4.375l-1.171875 0l0 -4.375q0 -0.890625 -0.390625 -1.28125q-0.375 -0.40625 -1.078125 -0.40625q-0.515625 0 -0.984375 0.28125q-0.453125 0.265625 -0.65625 0.734375q-0.1875 0.453125 -0.1875 1.265625l0 3.78125l-1.171875 0zm11.928101 -0.859375q-0.65625 0.5625 -1.265625 0.796875q-0.59375 0.21875 -1.28125 0.21875q-1.140625 0 -1.75 -0.546875q-0.609375 -0.5625 -0.609375 -1.4375q0 -0.5 0.21875 -0.921875q0.234375 -0.421875 0.609375 -0.671875q0.375 -0.25 0.84375 -0.390625q0.34375 -0.078125 1.046875 -0.171875q1.421875 -0.171875 2.09375 -0.40625q0 -0.234375 0 -0.296875q0 -0.71875 -0.328125 -1.015625q-0.453125 -0.390625 -1.34375 -0.390625q-0.8125 0 -1.21875 0.296875q-0.390625 0.28125 -0.578125 1.015625l-1.140625 -0.15625q0.15625 -0.734375 0.515625 -1.1875q0.359375 -0.453125 1.03125 -0.6875q0.671875 -0.25 1.5625 -0.25q0.890625 0 1.4375 0.203125q0.5625 0.203125 0.8125 0.53125q0.265625 0.3125 0.375 0.796875q0.046875 0.296875 0.046875 1.078125l0 1.5625q0 1.625 0.078125 2.0625q0.078125 0.4375 0.296875 0.828125l-1.21875 0q-0.1875 -0.359375 -0.234375 -0.859375zm-0.09375 -2.609375q-0.640625 0.265625 -1.921875 0.4375q-0.71875 0.109375 -1.015625 0.25q-0.296875 0.125 -0.46875 0.375q-0.15625 0.25 -0.15625 0.546875q0 0.46875 0.34375 0.78125q0.359375 0.3125 1.046875 0.3125q0.671875 0 1.203125 -0.296875q0.53125 -0.296875 0.78125 -0.8125q0.1875 -0.390625 0.1875 -1.171875l0 -0.421875zm2.5218506 1.40625l1.15625 -0.1875q0.109375 0.703125 0.546875 1.078125q0.453125 0.359375 1.25 0.359375q0.8125 0 1.203125 -0.328125q0.390625 -0.328125 0.390625 -0.765625q0 -0.390625 -0.359375 -0.625q-0.234375 -0.15625 -1.1875 -0.390625q-1.296875 -0.328125 -1.796875 -0.5625q-0.484375 -0.25 -0.75 -0.65625q-0.25 -0.421875 -0.25 -0.9375q0 -0.453125 0.203125 -0.84375q0.21875 -0.40625 0.578125 -0.671875q0.28125 -0.1875 0.75 -0.328125q0.46875 -0.140625 1.015625 -0.140625q0.8125 0 1.421875 0.234375q0.609375 0.234375 0.90625 0.640625q0.296875 0.390625 0.40625 1.0625l-1.140625 0.15625q-0.078125 -0.53125 -0.453125 -0.828125q-0.375 -0.3125 -1.0625 -0.3125q-0.8125 0 -1.15625 0.265625q-0.34375 0.265625 -0.34375 0.625q0 0.234375 0.140625 0.421875q0.15625 0.1875 0.453125 0.3125q0.171875 0.0625 1.03125 0.296875q1.25 0.328125 1.734375 0.546875q0.5 0.203125 0.78125 0.609375q0.28125 0.40625 0.28125 1.0q0 0.59375 -0.34375 1.109375q-0.34375 0.515625 -1.0 0.796875q-0.640625 0.28125 -1.453125 0.28125q-1.34375 0 -2.046875 -0.5625q-0.703125 -0.5625 -0.90625 -1.65625zm7.4609375 -3.515625l0 -1.328125l1.328125 0l0 1.328125l-1.328125 0zm0 5.578125l0 -1.328125l1.328125 0l0 1.328125l-1.328125 0zm7.1091003 2.65625l0 -12.203125l2.578125 0l0 0.96875l-1.40625 0l0 10.25l1.40625 0l0 0.984375l-2.578125 0zm5.6404877 0l-2.59375 0l0 -0.984375l1.421875 0l0 -10.25l-1.421875 0l0 -0.96875l2.59375 0l0 12.203125z" fill-rule="nonzero"/><path fill="#000000" fill-opacity="0.0" d="m67.72138 173.37573l145.41733 -110.04724" fill-rule="evenodd"/><path stroke="#000000" stroke-width="1.0" stroke-linejoin="round" stroke-linecap="butt" d="m67.72138 173.37573l145.41733 -110.04724" fill-rule="evenodd"/><path fill="#000000" fill-opacity="0.0" d="m72.19685 184.19948l136.47244 0" fill-rule="evenodd"/><path stroke="#000000" stroke-width="1.0" stroke-linejoin="round" stroke-linecap="butt" d="m72.19685 184.19948l136.47244 0" fill-rule="evenodd"/><path fill="#000000" fill-opacity="0.0" d="m223.97638 67.81628l0 101.07087" fill-rule="evenodd"/><path stroke="#000000" stroke-width="1.0" stroke-linejoin="round" stroke-linecap="butt" d="m223.97638 67.81628l0 101.07087" fill-rule="evenodd"/></g></svg>