<svg xmlns="http://www.w3.org/2000/svg" viewBox="0 0 165.429 257.127"><defs><marker orient="auto" refY="0" refX="0" id="g" overflow="visible"><path d="M-10 0l-4 4L0 0l-14-4z" fill-rule="evenodd" stroke="#000" stroke-width="1.0664"/></marker><marker orient="auto" refY="0" refX="0" id="f" overflow="visible"><path d="M10 0l4-4L0 0l14 4z" fill-rule="evenodd" stroke="#000" stroke-width="1.0664"/></marker><marker id="c" refX="0" refY="0" orient="auto" overflow="visible"><path d="M-10 0l-4 4L0 0l-14-4z" fill-rule="evenodd" stroke="#000" stroke-width="1.0664"/></marker><marker id="e" refX="0" refY="0" orient="auto" overflow="visible"><path d="M10 0l4-4L0 0l14 4z" fill-rule="evenodd" stroke="#000" stroke-width="1.0664"/></marker><marker id="d" refX="0" refY="0" orient="auto" overflow="visible"><path d="M-10 0l-4 4L0 0l-14-4z" fill-rule="evenodd" stroke="#000" stroke-width="1.0664"/></marker><marker orient="auto" refY="0" refX="0" id="h" overflow="visible"><path d="M-10 0l-4 4L0 0l-14-4z" fill-rule="evenodd" stroke="#000" stroke-width="1.0664"/></marker><filter id="i" color-interpolation-filters="sRGB"><feFlood flood-opacity="1" flood-color="#FFF" result="result1"/><feImage result="result2"/><feBlend mode="multiply" in2="result1" result="result4"/><feMerge result="result3"><feMergeNode in="result1"/><feMergeNode in="SourceGraphic"/></feMerge></filter><filter id="j" color-interpolation-filters="sRGB"><feFlood flood-opacity="1" flood-color="#FFF" result="result1"/><feImage result="result2"/><feBlend mode="multiply" in2="result1" result="result4"/><feMerge result="result3"><feMergeNode in="result1"/><feMergeNode in="SourceGraphic"/></feMerge></filter><filter id="k" color-interpolation-filters="sRGB"><feFlood flood-opacity="1" flood-color="#FFF" result="result1"/><feImage result="result2"/><feBlend mode="multiply" in2="result1" result="result4"/><feMerge result="result3"><feMergeNode in="result1"/><feMergeNode in="SourceGraphic"/></feMerge></filter><filter id="l" color-interpolation-filters="sRGB"><feFlood flood-opacity="1" flood-color="#FFF" result="result1"/><feImage result="result2"/><feBlend mode="multiply" in2="result1" result="result4"/><feMerge result="result3"><feMergeNode in="result1"/><feMergeNode in="SourceGraphic"/></feMerge></filter><filter id="m" color-interpolation-filters="sRGB"><feFlood flood-opacity="1" flood-color="#FFF" result="result1"/><feImage result="result2"/><feBlend mode="multiply" in2="result1" result="result4"/><feMerge result="result3"><feMergeNode in="result1"/><feMergeNode in="SourceGraphic"/></feMerge></filter><filter id="n" color-interpolation-filters="sRGB"><feFlood flood-opacity="1" flood-color="#FFF" result="result1"/><feImage result="result2"/><feBlend mode="multiply" in2="result1" result="result4"/><feMerge result="result3"><feMergeNode in="result1"/><feMergeNode in="SourceGraphic"/></feMerge></filter></defs><g transform="translate(-.965 18.777)"><ellipse ry="7.865" rx="7.557" cy="6.557" cx="84.44" fill="#7bc2fe" stroke="#00f" stroke-width=".27"/><g transform="translate(-25.93 -49.742)" id="a" fill="#7bc2fe" stroke="#00f" stroke-width=".27"><ellipse ry="7.557" rx="7.865" cy="123.131" cx="47.177"/><ellipse ry="7.557" rx="7.865" cy="123.131" cx="172.06"/></g><g fill="none" stroke="#000" stroke-width=".265"><path d="M116.262 61.001l54.323 54.323" marker-end="url(#c)" transform="translate(-25.93 -49.742)"/><path d="M103.986 61.001l-54.323 54.323" marker-end="url(#d)" transform="translate(-25.93 -49.742)"/></g><g transform="translate(-25.93 24.691)" id="b" fill="#7bc2fe" stroke="#00f" stroke-width=".27"><ellipse ry="7.557" rx="7.865" cy="123.131" cx="47.177"/><ellipse ry="7.557" rx="7.865" cy="123.131" cx="172.06"/></g><ellipse ry="7.865" rx="7.557" cy="215.004" cx="84.192" fill="#7bc2fe" stroke="#00f" stroke-width=".27"/><path d="M90.313 209.496l54.323-54.323" fill="none" stroke="#000" stroke-width=".265" marker-start="url(#e)"/><path d="M78.037 209.496l-54.323-54.323" fill="none" stroke="#000" stroke-width=".265" marker-start="url(#f)"/><path d="M20.977 80.886v58.693" fill="none" stroke="#000" stroke-width=".361" stroke-dasharray="2.88755848,2.88755848" marker-end="url(#g)"/><path d="M146.059 80.763v59.606" fill="none" stroke="#000" stroke-width=".364" stroke-dasharray="2.90993176,2.90993176" marker-end="url(#h)"/><text y="-6.082" x="54.504" style="line-height:1.25" font-weight="400" font-size="10.583" font-family="sans-serif" letter-spacing="0" word-spacing="0" stroke-width=".265"><tspan y="-6.082" x="54.504"><tspan y="-6.082" x="54.504">Initial vault</tspan></tspan></text><g font-weight="400" font-size="40" font-family="sans-serif" letter-spacing="0" word-spacing="0"><text transform="matrix(.26459 0 0 .26458 -65.887 21.801)" y="125.013" x="270" style="line-height:1.25" filter="url(#i)"><tspan y="125.013" x="270"><tspan y="125.013" x="270">Replica A</tspan></tspan></text><text transform="matrix(.26458 0 0 .26458 39.77 21.801)" y="125.013" x="270" style="line-height:1.25" filter="url(#j)"><tspan y="125.013" x="270"><tspan y="125.013" x="270">Replica B</tspan></tspan></text></g><g font-weight="400" font-size="40" font-family="sans-serif" letter-spacing="0" word-spacing="0"><text transform="matrix(.26459 0 0 .26458 -65.83 97.017)" y="125.013" x="270" style="line-height:1.25" filter="url(#k)"><tspan y="125.013" x="270"><tspan y="125.013" x="270">Replica A&apos;</tspan></tspan></text><text transform="matrix(.26458 0 0 .26458 39.825 97.017)" y="125.013" x="270" style="line-height:1.25" filter="url(#l)"><tspan y="125.013" x="270"><tspan y="125.013" x="270">Replica B&apos;</tspan></tspan></text></g><text y="78.502" x="40.341" style="line-height:1.25" font-weight="400" font-size="10.583" font-family="sans-serif" letter-spacing="0" word-spacing="0" stroke-width=".265"><tspan y="78.502" x="40.341"><tspan style="text-align:start" y="78.502" x="40.341" font-size="8.467">Time passes. Clients </tspan></tspan><tspan y="91.731" x="40.341"><tspan style="text-align:start" y="91.731" x="40.341" font-size="8.467">edit their replicas </tspan></tspan><tspan y="104.96" x="40.341"><tspan style="text-align:start" y="104.96" x="40.341" font-size="8.467">independently.</tspan></tspan></text><text transform="matrix(.26459 0 0 .26458 -63.948 150.992)" y="125.013" x="270" style="line-height:1.25" font-weight="400" font-size="40" font-family="sans-serif" letter-spacing="0" word-spacing="0" filter="url(#m)"><tspan y="125.013" x="270"><tspan y="125.013" x="270">merge(A&apos;, B&apos;)</tspan></tspan></text><text transform="matrix(.26459 0 0 .26458 14.292 150.992)" y="125.013" x="270" style="line-height:1.25" font-weight="400" font-size="40" font-family="sans-serif" letter-spacing="0" word-spacing="0" filter="url(#n)"><tspan y="125.013" x="270"><tspan y="125.013" x="270">merge(B&apos;, A&apos;)</tspan></tspan></text><text y="232.943" x="33.597" style="line-height:1.25" font-weight="400" font-size="10.583" font-family="sans-serif" letter-spacing="0" word-spacing="0" stroke-width=".265"><tspan y="232.943" x="33.597"><tspan y="232.943" x="33.597">Synchronized vault</tspan></tspan></text></g></svg>