<svg xmlns="http://www.w3.org/2000/svg" viewBox="0 0 180.461 194.763"><g transform="translate(-16.36 -54.58)"><ellipse ry="7.865" rx="7.557" cy="62.579" cx="107.137" fill="#7bc2fe" stroke="#00f" stroke-width=".27"/><ellipse ry="7.865" rx="7.557" cy="142.181" cx="54.309" fill="#7bc2fe" stroke="#00f" stroke-width=".27"/><path d="M159.965 133.56a7.557 7.865 0 00-7.556 7.865 7.557 7.865 0 007.556 7.865 7.557 7.865 0 007.558-7.865 7.557 7.865 0 00-7.558-7.865z" fill="#7bc2fe" stroke="#00f" stroke-width=".27"/><ellipse ry="7.865" rx="7.557" cy="220.308" cx="27.895" fill="#7bc2fe" stroke="#00f" stroke-width=".27"/><ellipse ry="7.865" rx="7.557" cy="220.308" cx="80.723" fill="#7bc2fe" stroke="#00f" stroke-width=".27"/><ellipse ry="7.865" rx="7.557" cy="220.308" cx="133.551" fill="#7bc2fe" stroke="#00f" stroke-width=".27"/><ellipse ry="7.865" rx="7.557" cy="220.308" cx="186.38" fill="#7bc2fe" stroke="#00f" stroke-width=".27"/><text y="249.203" x="21.097" style="line-height:1.25" font-weight="400" font-size="10.583" font-family="sans-serif" letter-spacing="0" word-spacing="0" stroke-width=".265"><tspan y="249.203" x="21.097"><tspan y="249.203" x="21.097">C1</tspan></tspan></text><text y="249.203" x="73.705" style="line-height:1.25" font-weight="400" font-size="10.583" font-family="sans-serif" letter-spacing="0" word-spacing="0" stroke-width=".265"><tspan y="249.203" x="73.705"><tspan y="249.203" x="73.705">C2</tspan></tspan></text><text y="249.182" x="126.588" style="line-height:1.25" font-weight="400" font-size="10.583" font-family="sans-serif" letter-spacing="0" word-spacing="0" stroke-width=".265"><tspan y="249.182" x="126.588"><tspan y="249.182" x="126.588">C3</tspan></tspan></text><text y="249.203" x="179.274" style="line-height:1.25" font-weight="400" font-size="10.583" font-family="sans-serif" letter-spacing="0" word-spacing="0" stroke-width=".265"><tspan y="249.203" x="179.274">C4</tspan></text><path d="M28.046 211.804l.122.05c5.08-12.382 20.198-49.58 25.278-61.962-5.08 12.382-20.443 49.48-25.523 61.862l.123.05z"/><path d="M80.433 211.804l.122-.053c-5.398-12.382-21.712-49.477-27.11-61.86 5.398 12.383 21.47 49.583 26.867 61.966l.121-.053zM133.88 212.069l.122.05c5.08-12.542 20.197-50.215 25.277-62.756-5.08 12.54-20.442 50.115-25.522 62.656l.122.05zM185.208 211.54l.122-.051c-5.185-12.436-20.865-49.691-26.05-62.126 5.185 12.435 20.62 49.792 25.806 62.228l.122-.051zM53.71 134.281l.102.085c10.636-12.806 42.443-51.308 53.08-64.114-10.637 12.806-42.647 51.139-53.283 63.945l.101.084zM159.965 133.56l.102-.085c-10.615-12.662-42.56-50.561-53.175-63.223 10.614 12.662 42.357 50.731 52.972 63.393l.101-.085z"/><text y="165.464" x="120.996" style="line-height:1.25" font-weight="400" font-size="10.583" font-family="sans-serif" letter-spacing="0" word-spacing="0" stroke-width=".265"><tspan y="165.464" x="120.996">C6=C(C3+C4)</tspan></text><text y="165.464" x="15.765" style="line-height:1.25" font-weight="400" font-size="10.583" font-family="sans-serif" letter-spacing="0" word-spacing="0" stroke-width=".265"><tspan y="165.464" x="15.765">C5=C(C1+C2)</tspan></text><text y="84.056" x="68.682" style="line-height:1.25" font-weight="400" font-size="10.583" font-family="sans-serif" letter-spacing="0" word-spacing="0" stroke-width=".265"><tspan y="84.056" x="68.682">C7=C(C5+C6)</tspan></text></g></svg>